<svg width="25" height="25" viewBox="0 0 25 25" fill="none" xmlns="http://www.w3.org/2000/svg">
<g clip-path="url(#clip0_1_495)">
<path d="M21.6808 19.0241C21.333 19.8276 20.9213 20.5673 20.4442 21.2473C19.794 22.1744 19.2616 22.8161 18.8513 23.1725C18.2153 23.7574 17.5338 24.0569 16.8041 24.074C16.2802 24.074 15.6485 23.9249 14.913 23.6225C14.1752 23.3215 13.4972 23.1725 12.8772 23.1725C12.227 23.1725 11.5296 23.3215 10.7837 23.6225C10.0366 23.9249 9.43477 24.0825 8.97464 24.0981C8.27487 24.1279 7.57736 23.8198 6.88114 23.1725C6.43677 22.7849 5.88095 22.1205 5.21511 21.1792C4.50071 20.174 3.91338 19.0085 3.45325 17.6796C2.96047 16.2443 2.71344 14.8544 2.71344 13.5088C2.71344 11.9674 3.0465 10.638 3.71362 9.52395C4.23792 8.6291 4.93542 7.92322 5.8084 7.40503C6.68138 6.88684 7.62464 6.62277 8.64044 6.60588C9.19626 6.60588 9.92514 6.7778 10.831 7.11569C11.7342 7.45472 12.3141 7.62665 12.5684 7.62665C12.7585 7.62665 13.4028 7.42562 14.4949 7.02483C15.5278 6.65315 16.3995 6.49926 17.1136 6.55988C19.0487 6.71605 20.5024 7.47886 21.4693 8.85313C19.7386 9.90173 18.8826 11.3704 18.8996 13.2545C18.9152 14.7221 19.4476 15.9433 20.4939 16.913C20.9681 17.363 21.4977 17.7108 22.0868 17.9579C21.9591 18.3284 21.8242 18.6833 21.6808 19.0241ZM17.2428 1.56023C17.2428 2.71049 16.8226 3.78449 15.9849 4.77857C14.9741 5.96033 13.7514 6.64321 12.4256 6.53546C12.4087 6.39746 12.3989 6.25223 12.3989 6.09961C12.3989 4.99536 12.8796 3.81359 13.7333 2.84734C14.1595 2.35811 14.7015 1.95132 15.3588 1.62681C16.0147 1.30715 16.6352 1.13037 17.2187 1.1001C17.2357 1.25387 17.2428 1.40767 17.2428 1.56023Z" fill="black"/>
</g>
<defs>
<clipPath id="clip0_1_495">
<rect width="24" height="24" fill="white" transform="translate(0.399963 0.600098)"/>
</clipPath>
</defs>
</svg>
