<svg width="25" height="24" viewBox="0 0 25 24" fill="none" xmlns="http://www.w3.org/2000/svg">
<g clip-path="url(#clip0_1_490)">
<path d="M24.4 12.0733C24.4 5.40541 19.0274 0 12.4 0C5.77254 0 0.399963 5.40541 0.399963 12.0733C0.399963 18.0995 4.78819 23.0943 10.525 24V15.5633H7.47809V12.0733H10.525V9.41343C10.525 6.38755 12.3165 4.71615 15.0576 4.71615C16.3705 4.71615 17.7438 4.95195 17.7438 4.95195V7.92313H16.2306C14.7399 7.92313 14.275 8.85379 14.275 9.80857V12.0733H17.6031L17.0711 15.5633H14.275V24C20.0118 23.0943 24.4 18.0995 24.4 12.0733Z" fill="#0A76D1"/>
</g>
<defs>
<clipPath id="clip0_1_490">
<rect width="24" height="24" fill="white" transform="translate(0.399963)"/>
</clipPath>
</defs>
</svg>
