<svg width="16" height="15" viewBox="0 0 16 15" fill="none" xmlns="http://www.w3.org/2000/svg">
<path d="M0.163216 2.66213C0.163216 1.7419 0.909025 0.996094 1.82925 0.996094H5.99433V4.32816C5.99433 4.78892 6.36658 5.16117 6.82734 5.16117H10.1594V6.166C8.23566 6.71006 6.82734 8.47762 6.82734 10.5758C6.82734 12.1143 7.58487 13.4731 8.74588 14.3061C8.66518 14.3165 8.57928 14.3243 8.49337 14.3243H1.82925C0.909025 14.3243 0.163216 13.5772 0.163216 12.6583V2.66213ZM6.82734 4.32816V0.996094L10.1594 4.32816H6.82734ZM7.66036 10.5758C7.66036 8.50625 9.33941 6.8272 11.4089 6.8272C13.4785 6.8272 15.1575 8.50625 15.1575 10.5758C15.1575 12.6453 13.4785 14.3243 11.4089 14.3243C9.33941 14.3243 7.66036 12.6453 7.66036 10.5758ZM11.4089 9.32625C11.7552 9.32625 12.0337 9.04771 12.0337 8.70149C12.0337 8.35527 11.7552 8.07673 11.4089 8.07673C11.0627 8.07673 10.7842 8.35527 10.7842 8.70149C10.7842 9.04771 11.0627 9.32625 11.4089 9.32625ZM10.9924 10.9923V12.2418C10.7633 12.2418 10.5759 12.4292 10.5759 12.6583C10.5759 12.8874 10.7633 13.0748 10.9924 13.0748H11.8254C12.0545 13.0748 12.2419 12.8874 12.2419 12.6583C12.2419 12.4292 12.0545 12.2418 11.8254 12.2418V10.5758C11.8254 10.3467 11.638 10.1593 11.4089 10.1593H10.9924C10.7633 10.1593 10.5759 10.3467 10.5759 10.5758C10.5759 10.8049 10.7633 10.9923 10.9924 10.9923Z" fill="#475569"/>
</svg>
