<svg width="25" height="25" viewBox="0 0 25 25" fill="none" xmlns="http://www.w3.org/2000/svg">
<g clip-path="url(#clip0_1_482)">
<path fill-rule="evenodd" clip-rule="evenodd" d="M23.6705 12.6614C23.6705 11.8459 23.5973 11.0618 23.4614 10.3091H12.6305V14.7575H18.8196C18.553 16.195 17.7427 17.4129 16.5248 18.2284V21.1139H20.2414C22.4159 19.1118 23.6705 16.1636 23.6705 12.6614Z" fill="#4285F4"/>
<path fill-rule="evenodd" clip-rule="evenodd" d="M12.6299 23.8995C15.7349 23.8995 18.3381 22.8697 20.2409 21.1134L16.5243 18.2279C15.4945 18.9179 14.1772 19.3256 12.6299 19.3256C9.63469 19.3256 7.09946 17.3027 6.19514 14.5845H2.35309V17.5641C4.24537 21.3225 8.13446 23.8995 12.6299 23.8995Z" fill="#34A853"/>
<path fill-rule="evenodd" clip-rule="evenodd" d="M6.19566 14.5849C5.96566 13.8949 5.83497 13.1578 5.83497 12.3999C5.83497 11.6419 5.96566 10.9049 6.19566 10.2149V7.23535H2.35361C1.57475 8.78785 1.13043 10.5442 1.13043 12.3999C1.13043 14.2556 1.57475 16.0119 2.35361 17.5644L6.19566 14.5849Z" fill="#FBBC05"/>
<path fill-rule="evenodd" clip-rule="evenodd" d="M12.6299 5.47376C14.3184 5.47376 15.8343 6.05399 17.0261 7.19354L20.3245 3.89513C18.3329 2.03945 15.7297 0.899902 12.6299 0.899902C8.13446 0.899902 4.24537 3.47695 2.35309 7.23535L6.19514 10.2149C7.09946 7.49672 9.63469 5.47376 12.6299 5.47376Z" fill="#EA4335"/>
</g>
<defs>
<clipPath id="clip0_1_482">
<rect width="24" height="24" fill="white" transform="translate(0.399963 0.399902)"/>
</clipPath>
</defs>
</svg>
