<svg width="118" height="33" viewBox="0 0 118 33" fill="none" xmlns="http://www.w3.org/2000/svg">
<g clip-path="url(#clip0_1_583)">
<path d="M31.7158 27.5013H40.7364V25.2625H34.1997V22.6315H39.8866V20.3926H34.1997V17.8434H40.6547V15.6045H31.7158V27.5013ZM43.238 27.5013H45.7383V22.8439H51.4906V20.5561H45.7383V17.8923H52.2423V15.6045H43.238V27.5013ZM59.456 27.681C62.6426 27.681 64.6526 25.9162 64.6526 22.3209V15.6045H62.1523V22.4353C62.1523 24.38 61.1392 25.3769 59.4886 25.3769C57.8381 25.3769 56.8413 24.331 56.8413 22.3373V15.6045H54.3246V22.419C54.3246 25.8998 56.2856 27.681 59.456 27.681ZM67.4952 27.5013H69.9628V19.7553L75.8788 27.5013H78.0192V15.6045H75.5354V23.1053L69.7993 15.6045H67.4952V27.5013ZM81.0599 27.5013H85.6521C89.3947 27.5013 91.9767 24.9029 91.9767 21.5529V21.5202C91.9767 18.1702 89.3947 15.6045 85.6521 15.6045H81.0599V27.5013ZM85.6521 17.876C87.858 17.876 89.3456 19.3958 89.3456 21.5529V21.5856C89.3456 23.7427 87.858 25.2297 85.6521 25.2297H83.5601V17.876H85.6521ZM94.4811 27.5013H103.502V25.2625H96.965V22.6315H102.652V20.3926H96.965V17.8434H103.42V15.6045H94.4811V27.5013ZM108.504 21.4058V17.876H111.2C112.524 17.876 113.341 18.4806 113.341 19.6246V19.6572C113.341 20.7031 112.557 21.4058 111.25 21.4058H108.504ZM106.004 27.5013H108.504V23.6283H110.677L113.308 27.5013H116.25L113.275 23.2034C114.811 22.6641 115.874 21.4548 115.874 19.5265V19.4938C115.874 18.3989 115.531 17.4675 114.877 16.8138C114.093 16.0294 112.916 15.6045 111.412 15.6045H106.004V27.5013Z" fill="white"/>
<path d="M2.53326 21.0673L4.92628 15.8825C5.09768 15.5111 5.62915 15.5218 5.78554 15.8997L10.6033 27.5426C10.7663 27.9365 11.3279 27.9262 11.4763 27.5265L16.8354 13.0985C16.9792 12.7111 17.5176 12.6857 17.6974 13.0578L23.5152 25.1023C23.7036 25.4924 24.2747 25.4404 24.3897 25.023L31.0603 0.811478" stroke="white" stroke-width="3.45782"/>
</g>
<defs>
<clipPath id="clip0_1_583">
<rect width="117.331" height="31.9994" fill="white" transform="translate(0.399963 0.10038)"/>
</clipPath>
</defs>
</svg>
